<?xml version="1.0" standalone="no"?>
<!DOCTYPE svg PUBLIC "-//W3C//DTD SVG 20010904//EN"
 "http://www.w3.org/TR/2001/REC-SVG-20010904/DTD/svg10.dtd">
<svg version="1.0" xmlns="http://www.w3.org/2000/svg"
 width="96.000000pt" height="96.000000pt" viewBox="0 0 96.000000 96.000000"
 preserveAspectRatio="xMidYMid meet">
<metadata>
Created by potrace 1.14, written by Peter Selinger 2001-2017
</metadata>
<g transform="translate(0.000000,96.000000) scale(0.100000,-0.100000)"
fill="#000000" stroke="none">
<path d="M696 791 c-4 -6 -5 -15 -1 -20 9 -16 -15 -24 -30 -11 -15 13 -19 8
-16 -21 1 -9 -5 -19 -14 -22 -8 -4 -15 -15 -15 -25 0 -10 -14 -29 -31 -41 -29
-21 -34 -22 -75 -11 -55 16 -101 7 -150 -29 -22 -15 -59 -31 -84 -35 -169 -27
-243 -217 -134 -345 92 -107 275 -86 341 39 13 25 40 56 61 70 52 36 82 85 82
134 0 35 5 44 34 64 19 13 40 20 50 16 9 -3 23 -1 31 6 12 10 18 10 30 0 16
-13 19 -8 15 24 -1 15 3 17 25 12 20 -5 26 -3 22 6 -2 7 5 23 16 35 l20 22
-47 65 c-55 77 -59 80 -87 65 -16 -8 -23 -8 -29 1 -5 9 -9 9 -14 1z m108 -76
c30 -43 36 -59 27 -68 -8 -8 -14 -8 -19 -1 -4 5 -22 31 -40 58 -19 26 -31 54
-28 62 8 21 16 14 60 -51z m-47 -30 c27 -42 33 -59 25 -67 -6 -6 -13 -10 -15
-7 -69 92 -85 129 -57 129 6 0 26 -25 47 -55z m-48 -31 c37 -52 44 -74 21 -74
-5 0 -27 26 -50 57 -30 42 -37 59 -28 65 7 4 14 8 15 8 1 0 20 -25 42 -56z
m-59 -17 c0 -22 -119 -99 -137 -88 -16 8 -13 11 82 79 34 24 55 28 55 9z
m-130 -26 c0 -12 -58 -51 -75 -51 -9 0 -30 -15 -48 -34 -18 -18 -60 -52 -95
-76 -59 -41 -63 -42 -81 -26 -15 14 -24 15 -40 6 -33 -17 -25 -46 35 -132 49
-69 60 -79 83 -76 23 3 26 7 26 40 0 35 5 41 72 88 39 27 77 50 83 50 7 0 35
20 61 45 58 54 74 57 65 13 -8 -44 -35 -79 -81 -104 -23 -14 -44 -36 -55 -61
-60 -134 -243 -148 -321 -24 -46 72 -38 163 19 225 34 36 80 56 129 56 28 0
45 8 69 31 18 17 47 34 66 38 36 8 88 3 88 -8z m166 -28 c-22 -22 -131 -91
-137 -87 -18 11 -7 24 53 68 47 33 66 42 76 34 7 -6 11 -13 8 -15z m-182 -62
c25 -27 17 -72 -15 -90 -24 -13 -29 -13 -53 2 -17 12 -26 26 -26 44 0 55 59
83 94 44z m-119 -69 c0 -6 -26 -29 -58 -52 -49 -35 -58 -39 -64 -24 -3 9 0 20
8 25 8 4 32 21 54 38 40 30 60 35 60 13z m39 -41 c3 -4 -22 -28 -55 -51 -45
-31 -64 -39 -72 -31 -8 8 -5 16 13 29 13 9 38 27 55 39 32 24 51 28 59 14z
m-164 -77 c38 -55 49 -79 41 -87 -6 -6 -12 -9 -14 -6 -42 54 -107 151 -107
159 0 29 33 2 80 -66z"/>
</g>
</svg>
